<mxfile host="app.diagrams.net" modified="2022-06-03T12:24:24.614Z" agent="5.0 (Windows)" etag="uOkNJswTwJttOZnAptyP" version="16.2.4" type="github">
  <diagram id="kgpKYQtTHZ0yAKxKKP6v" name="Page-1">
    <mxGraphModel dx="1798" dy="501" grid="1" gridSize="10" guides="1" tooltips="1" connect="1" arrows="1" fold="1" page="1" pageScale="1" pageWidth="850" pageHeight="1100" math="0" shadow="0">
      <root>
        <mxCell id="0" />
        <mxCell id="1" parent="0" />
        <mxCell id="3nuBFxr9cyL0pnOWT2aG-1" value="Client &#xa;user_id=1&#xa;" style="shape=umlLifeline;perimeter=lifelinePerimeter;container=1;collapsible=0;recursiveResize=0;rounded=0;shadow=0;strokeWidth=1;" parent="1" vertex="1">
          <mxGeometry x="120" y="80" width="100" height="300" as="geometry" />
        </mxCell>
        <mxCell id="3nuBFxr9cyL0pnOWT2aG-2" value="" style="points=[];perimeter=orthogonalPerimeter;rounded=0;shadow=0;strokeWidth=1;" parent="3nuBFxr9cyL0pnOWT2aG-1" vertex="1">
          <mxGeometry x="45" y="70" width="10" height="200" as="geometry" />
        </mxCell>
        <mxCell id="3nuBFxr9cyL0pnOWT2aG-3" value="user Press button" style="verticalAlign=bottom;startArrow=oval;endArrow=block;startSize=8;shadow=0;strokeWidth=1;" parent="3nuBFxr9cyL0pnOWT2aG-1" target="3nuBFxr9cyL0pnOWT2aG-2" edge="1">
          <mxGeometry relative="1" as="geometry">
            <mxPoint x="-70" y="70" as="sourcePoint" />
          </mxGeometry>
        </mxCell>
        <mxCell id="3nuBFxr9cyL0pnOWT2aG-5" value="API" style="shape=umlLifeline;perimeter=lifelinePerimeter;container=1;collapsible=0;recursiveResize=0;rounded=0;shadow=0;strokeWidth=1;" parent="1" vertex="1">
          <mxGeometry x="300" y="80" width="100" height="300" as="geometry" />
        </mxCell>
        <mxCell id="3nuBFxr9cyL0pnOWT2aG-6" value="" style="points=[];perimeter=orthogonalPerimeter;rounded=0;shadow=0;strokeWidth=1;" parent="3nuBFxr9cyL0pnOWT2aG-5" vertex="1">
          <mxGeometry x="45" y="80" width="10" height="190" as="geometry" />
        </mxCell>
        <mxCell id="3nuBFxr9cyL0pnOWT2aG-7" value="List&lt;Measurements&gt;" style="verticalAlign=bottom;endArrow=open;dashed=1;endSize=8;exitX=0;exitY=0.95;shadow=0;strokeWidth=1;" parent="1" source="3nuBFxr9cyL0pnOWT2aG-6" target="3nuBFxr9cyL0pnOWT2aG-2" edge="1">
          <mxGeometry relative="1" as="geometry">
            <mxPoint x="275" y="236" as="targetPoint" />
          </mxGeometry>
        </mxCell>
        <mxCell id="3nuBFxr9cyL0pnOWT2aG-8" value="/api/v1/patient/1&#xa;/getData/average/byDay" style="verticalAlign=bottom;endArrow=block;entryX=0;entryY=0;shadow=0;strokeWidth=1;" parent="1" source="3nuBFxr9cyL0pnOWT2aG-2" target="3nuBFxr9cyL0pnOWT2aG-6" edge="1">
          <mxGeometry relative="1" as="geometry">
            <mxPoint x="275" y="160" as="sourcePoint" />
            <mxPoint as="offset" />
          </mxGeometry>
        </mxCell>
        <mxCell id="ez2s506-AFsceahJ3Le5-1" value="Database" style="shape=umlLifeline;perimeter=lifelinePerimeter;container=1;collapsible=0;recursiveResize=0;rounded=0;shadow=0;strokeWidth=1;" vertex="1" parent="1">
          <mxGeometry x="640" y="80" width="100" height="300" as="geometry" />
        </mxCell>
        <mxCell id="ez2s506-AFsceahJ3Le5-2" value="" style="points=[];perimeter=orthogonalPerimeter;rounded=0;shadow=0;strokeWidth=1;" vertex="1" parent="ez2s506-AFsceahJ3Le5-1">
          <mxGeometry x="45" y="140" width="10" height="30" as="geometry" />
        </mxCell>
        <mxCell id="ez2s506-AFsceahJ3Le5-3" value="" style="endArrow=classic;html=1;rounded=0;" edge="1" parent="ez2s506-AFsceahJ3Le5-1" target="ez2s506-AFsceahJ3Le5-2">
          <mxGeometry width="50" height="50" relative="1" as="geometry">
            <mxPoint x="56" y="150" as="sourcePoint" />
            <mxPoint x="56" y="190" as="targetPoint" />
            <Array as="points">
              <mxPoint x="100" y="150" />
              <mxPoint x="100" y="160" />
            </Array>
          </mxGeometry>
        </mxCell>
        <mxCell id="ez2s506-AFsceahJ3Le5-5" value="Get Average by day" style="text;html=1;align=center;verticalAlign=middle;resizable=0;points=[];autosize=1;strokeColor=none;fillColor=none;" vertex="1" parent="1">
          <mxGeometry x="320" y="30" width="120" height="20" as="geometry" />
        </mxCell>
        <mxCell id="ez2s506-AFsceahJ3Le5-6" value="" style="endArrow=classic;html=1;rounded=0;" edge="1" parent="1" target="ez2s506-AFsceahJ3Le5-8">
          <mxGeometry width="50" height="50" relative="1" as="geometry">
            <mxPoint x="390" y="180" as="sourcePoint" />
            <mxPoint x="500" y="180" as="targetPoint" />
            <Array as="points">
              <mxPoint x="360" y="180" />
              <mxPoint x="390" y="180" />
            </Array>
          </mxGeometry>
        </mxCell>
        <mxCell id="ez2s506-AFsceahJ3Le5-7" value="Controller" style="shape=umlLifeline;perimeter=lifelinePerimeter;container=1;collapsible=0;recursiveResize=0;rounded=0;shadow=0;strokeWidth=1;" vertex="1" parent="1">
          <mxGeometry x="480" y="80" width="100" height="300" as="geometry" />
        </mxCell>
        <mxCell id="ez2s506-AFsceahJ3Le5-8" value="" style="points=[];perimeter=orthogonalPerimeter;rounded=0;shadow=0;strokeWidth=1;" vertex="1" parent="ez2s506-AFsceahJ3Le5-7">
          <mxGeometry x="45" y="100" width="10" height="120" as="geometry" />
        </mxCell>
        <mxCell id="ez2s506-AFsceahJ3Le5-12" value="" style="endArrow=classic;html=1;rounded=0;fontSize=10;entryX=0.9;entryY=0.229;entryDx=0;entryDy=0;entryPerimeter=0;" edge="1" parent="ez2s506-AFsceahJ3Le5-7" source="ez2s506-AFsceahJ3Le5-8" target="ez2s506-AFsceahJ3Le5-8">
          <mxGeometry width="50" height="50" relative="1" as="geometry">
            <mxPoint x="60" y="170" as="sourcePoint" />
            <mxPoint x="60" y="128" as="targetPoint" />
            <Array as="points">
              <mxPoint x="80" y="110" />
              <mxPoint x="80" y="128" />
            </Array>
          </mxGeometry>
        </mxCell>
        <mxCell id="ez2s506-AFsceahJ3Le5-11" value="&lt;font style=&quot;font-size: 10px&quot;&gt;findAvgByDayForUserId(1)&lt;/font&gt;" style="text;html=1;align=center;verticalAlign=middle;resizable=0;points=[];autosize=1;strokeColor=none;fillColor=none;" vertex="1" parent="1">
          <mxGeometry x="370" y="160" width="140" height="20" as="geometry" />
        </mxCell>
        <mxCell id="ez2s506-AFsceahJ3Le5-13" value="Generate query" style="text;html=1;align=center;verticalAlign=middle;resizable=0;points=[];autosize=1;strokeColor=none;fillColor=none;fontSize=10;" vertex="1" parent="1">
          <mxGeometry x="540" y="170" width="90" height="20" as="geometry" />
        </mxCell>
        <mxCell id="ez2s506-AFsceahJ3Le5-14" value="" style="endArrow=classic;html=1;rounded=0;fontSize=10;entryX=0.15;entryY=-0.017;entryDx=0;entryDy=0;entryPerimeter=0;" edge="1" parent="1" source="ez2s506-AFsceahJ3Le5-8" target="ez2s506-AFsceahJ3Le5-2">
          <mxGeometry width="50" height="50" relative="1" as="geometry">
            <mxPoint x="540" y="250" as="sourcePoint" />
            <mxPoint x="670" y="220" as="targetPoint" />
            <Array as="points">
              <mxPoint x="620" y="220" />
            </Array>
          </mxGeometry>
        </mxCell>
        <mxCell id="ez2s506-AFsceahJ3Le5-15" value="query *" style="text;html=1;align=center;verticalAlign=middle;resizable=0;points=[];autosize=1;strokeColor=none;fillColor=none;fontSize=10;" vertex="1" parent="1">
          <mxGeometry x="585" y="200" width="50" height="20" as="geometry" />
        </mxCell>
        <mxCell id="ez2s506-AFsceahJ3Le5-16" value="* : SELECT DATE(time) as time,user_id,avg(basal) as basal,avg(bolus) as bolus,device_id,avg(exercise) exercise,avg(meals) as meals,avg(measurement) as measurement&quot;&lt;br&gt;&amp;nbsp;&amp;nbsp; &amp;nbsp;&amp;nbsp;&amp;nbsp;&amp;nbsp; &amp;nbsp;&amp;nbsp;&amp;nbsp; &amp;nbsp;&amp;nbsp;&amp;nbsp;&amp;nbsp; + &quot;&amp;nbsp; FROM measurement &quot;&lt;br&gt;&amp;nbsp;&amp;nbsp; &amp;nbsp;&amp;nbsp;&amp;nbsp;&amp;nbsp; &amp;nbsp;&amp;nbsp;&amp;nbsp; &amp;nbsp;&amp;nbsp;&amp;nbsp;&amp;nbsp; + &quot;WHERE user_id= 1 &quot;&amp;nbsp; &lt;br&gt;&amp;nbsp;&amp;nbsp; &amp;nbsp;&amp;nbsp;&amp;nbsp;&amp;nbsp; &amp;nbsp;&amp;nbsp;&amp;nbsp; &amp;nbsp;&amp;nbsp;&amp;nbsp;&amp;nbsp; + &quot; GROUP BY Day(Time)" style="text;html=1;align=center;verticalAlign=middle;resizable=0;points=[];autosize=1;strokeColor=none;fillColor=none;fontSize=10;" vertex="1" parent="1">
          <mxGeometry x="-25" y="415" width="810" height="50" as="geometry" />
        </mxCell>
        <mxCell id="ez2s506-AFsceahJ3Le5-18" value="" style="endArrow=classic;html=1;rounded=0;fontSize=10;exitX=0;exitY=1.013;exitDx=0;exitDy=0;exitPerimeter=0;dashed=1;" edge="1" parent="1" source="ez2s506-AFsceahJ3Le5-2" target="ez2s506-AFsceahJ3Le5-8">
          <mxGeometry width="50" height="50" relative="1" as="geometry">
            <mxPoint x="460" y="160" as="sourcePoint" />
            <mxPoint x="510" y="110" as="targetPoint" />
            <Array as="points">
              <mxPoint x="620" y="250" />
            </Array>
          </mxGeometry>
        </mxCell>
        <mxCell id="ez2s506-AFsceahJ3Le5-19" value="List&amp;lt;Measurements&amp;gt;" style="text;html=1;align=center;verticalAlign=middle;resizable=0;points=[];autosize=1;strokeColor=none;fillColor=none;fontSize=10;" vertex="1" parent="1">
          <mxGeometry x="545" y="250" width="110" height="20" as="geometry" />
        </mxCell>
        <mxCell id="ez2s506-AFsceahJ3Le5-20" value="" style="endArrow=classic;html=1;rounded=0;fontSize=10;exitX=-0.1;exitY=0.932;exitDx=0;exitDy=0;exitPerimeter=0;entryX=1.15;entryY=0.692;entryDx=0;entryDy=0;entryPerimeter=0;dashed=1;" edge="1" parent="1" source="ez2s506-AFsceahJ3Le5-8" target="3nuBFxr9cyL0pnOWT2aG-6">
          <mxGeometry width="50" height="50" relative="1" as="geometry">
            <mxPoint x="521" y="291.05999999999995" as="sourcePoint" />
            <mxPoint x="370" y="291.05999999999995" as="targetPoint" />
          </mxGeometry>
        </mxCell>
        <mxCell id="ez2s506-AFsceahJ3Le5-21" value="List&amp;lt;Measurements&amp;gt;" style="text;html=1;align=center;verticalAlign=middle;resizable=0;points=[];autosize=1;strokeColor=none;fillColor=none;fontSize=10;" vertex="1" parent="1">
          <mxGeometry x="380" y="270" width="110" height="20" as="geometry" />
        </mxCell>
        <mxCell id="ez2s506-AFsceahJ3Le5-22" value="Process query" style="text;html=1;align=center;verticalAlign=middle;resizable=0;points=[];autosize=1;strokeColor=none;fillColor=none;fontSize=10;" vertex="1" parent="1">
          <mxGeometry x="700" y="210" width="80" height="20" as="geometry" />
        </mxCell>
      </root>
    </mxGraphModel>
  </diagram>
</mxfile>
